<?xml version="1.0" encoding="utf-8"?>
<!-- Generator: Adobe Illustrator 25.3.1, SVG Export Plug-In . SVG Version: 6.00 Build 0)  -->
<svg version="1.1" id="图层_1" xmlns="http://www.w3.org/2000/svg" xmlns:xlink="http://www.w3.org/1999/xlink" x="0px" y="0px"
	 viewBox="0 0 128 128" style="enable-background:new 0 0 128 128;" xml:space="preserve">
<style type="text/css">
	.st0{fill:url(#SVGID_1_);}
	.st1{fill:#404040;}
</style>
<g id="egWPp3.tif">
	<g>
		<linearGradient id="SVGID_1_" gradientUnits="userSpaceOnUse" x1="18.3322" y1="41.8177" x2="110.9102" y2="87.2946">
			<stop  offset="0.0144" style="stop-color:#E8B75A"/>
			<stop  offset="1" style="stop-color:#BB3366"/>
		</linearGradient>
		<path class="st0" d="M64.26,112.14c-0.84,0-1.52-0.26-2.01-0.48c-0.73-0.33-1.45-0.65-2.18-0.97l-0.89-0.39
			c-1.09-0.48-1.79-1.56-1.79-2.75l0.03-29.02l0-5.54c0-2.86,0-5.72,0-8.58c-9.88-4.91-19.75-9.84-29.62-14.76l-6.59-3.29
			c-0.97-0.48-1.6-1.45-1.66-2.53c-0.25-4.95,0.42-6.11,4.79-8.28c0.44-0.22,0.89-0.41,1.35-0.6l0.51-0.21
			c0.38-0.17,0.79-0.25,1.19-0.25c0.47,0,0.93,0.11,1.36,0.33l3.4,1.73c2.5,1.28,5.01,2.56,7.52,3.81
			c4.35,2.18,8.71,4.35,13.06,6.53c3.84,1.92,7.68,3.83,11.51,5.75c8.7-4.36,17.4-8.72,26.1-13.07l8.81-4.4
			c0.05-0.04,0.09-0.07,0.14-0.11c0.52-0.38,1.14-0.58,1.77-0.58c0.32,0,0.64,0.05,0.95,0.16c1.19,0.4,2.25,0.95,3.18,1.44
			c0.48,0.25,0.96,0.5,1.45,0.73c0.7,0.32,2.33,1.33,2.26,3.76c-0.02,0.73-0.02,1.47-0.03,2.21l-0.01,0.93
			c-0.01,1.12-0.65,2.15-1.66,2.65l-6.06,3.03c-10.05,5.02-20.1,10.04-30.16,15.05c0.02,12.36,0.03,24.73,0.04,37.1l0,6.02
			c0,1.19-0.7,2.26-1.79,2.75l-0.9,0.4c-0.79,0.35-1.59,0.7-2.38,1.06C65.42,112.01,64.85,112.14,64.26,112.14z"/>
		<path class="st1" d="M61.03,119.34c-0.12-0.04-0.24-0.08-0.36-0.13c-12.1-5.05-24.21-10.09-36.32-15.13l-7.68-3.2
			c-3.28-1.36-4.74-3.56-4.74-7.12l0-12.95c0-14.28,0-28.56-0.02-42.83c0-3.08,1.46-5.43,4.22-6.81
			c14.14-7.05,29.2-14.56,44.11-22.08c1.35-0.68,2.65-1.01,3.96-1.01c1.32,0,2.62,0.33,3.98,1.02c15.3,7.71,30.55,15.31,43.44,21.73
			c1.65,0.82,3.67,2.09,4.65,4.65c0.13,0.34,0.2,0.71,0.2,1.07v59c0,0.53-0.14,1.06-0.41,1.52c-1.09,1.85-2.64,3.17-4.76,4.04
			c-9.01,3.7-18.15,7.51-26.99,11.21l-0.6,0.25c-3.96,1.65-7.92,3.32-11.87,4.99 M25.5,89.8c10.13,4.2,20.25,8.41,30.37,12.63
			l5.67,2.36l0.93,0.41c0.59,0.26,1.17,0.51,1.75,0.77c0.57-0.25,1.14-0.51,1.71-0.76l0.88-0.39l6.54-2.72
			c9.85-4.1,19.69-8.2,29.55-12.27v-9.65c0-6.48,0-12.96,0-19.45c0-4.02-0.01-8.04-0.03-12.06l-0.01-4.97c0,0,0.02-1.68,0.02-2.04
			c-0.16-0.08-0.32-0.17-0.48-0.25c-0.81-0.42-1.57-0.82-2.3-1.07c-0.32-0.11-0.62-0.27-0.88-0.47c-0.01-0.01-0.02-0.02-0.04-0.03
			l-8.13-4.07c-8.94-4.47-17.88-8.94-26.81-13.42c-3.33,1.67-6.61,3.31-9.9,4.96c-2.86,1.43-5.71,2.86-8.57,4.29
			c-3.92,1.97-7.84,3.95-11.76,5.92l-5.27,2.66c-0.05,0.03-0.1,0.05-0.16,0.07L28,40.49c-0.33,0.14-0.66,0.27-0.99,0.43
			c-0.56,0.28-1.17,0.58-1.53,0.79c-0.01,0.43,0.03,1.15,0.06,1.8c0,0.05,0,0.11,0,0.16l-0.01,7.5
			C25.54,64.05,25.52,76.92,25.5,89.8z"/>
	</g>
</g>
</svg>
